<?xml version="1.0" encoding="UTF-8" standalone="no"?><!DOCTYPE svg PUBLIC "-//W3C//DTD SVG 1.1//EN" "http://www.w3.org/Graphics/SVG/1.1/DTD/svg11.dtd"><svg width="100%" height="100%" viewBox="0 0 2486 1100" version="1.1" xmlns="http://www.w3.org/2000/svg" xmlns:xlink="http://www.w3.org/1999/xlink" xml:space="preserve" xmlns:serif="http://www.serif.com/" style="fill-rule:evenodd;clip-rule:evenodd;stroke-linejoin:round;stroke-miterlimit:2;"><g><g><path d="M58.93,757.023c-37.246,-56.525 -58.93,-124.195 -58.93,-196.89c0,-197.861 160.638,-358.499 358.499,-358.499c197.86,0 358.498,160.638 358.498,358.499c0,72.695 -21.684,140.365 -58.93,196.89l-144.747,-0c58.255,-45.886 95.685,-117.052 95.685,-196.89c-0,-138.258 -112.248,-250.506 -250.506,-250.506c-138.259,-0 -250.507,112.248 -250.507,250.506c0,79.838 37.431,151.004 95.685,196.89l-144.747,-0Z"/><g><path d="M1652.58,0c-64.132,97.325 -174.402,161.609 -299.568,161.609c-125.166,-0 -235.436,-64.284 -299.568,-161.609l144.746,0c42.627,33.576 96.402,53.617 154.822,53.617c58.42,-0 112.195,-20.041 154.821,-53.617l144.747,0Z"/><path d="M1489.15,285.565c-0,-0 -202.343,-0 -202.343,-0l0,155.528l197.684,0l0,78.709l-197.684,-0l0,158.512l220.064,0l-0,78.709l-307.724,-0l0,-550.167l307.724,0l-0,78.709l-17.721,-0Z"/></g><path d="M778.419,206.856l175.122,0c43.537,0 79.355,7.426 107.573,21.67c29.564,14.922 51.241,35.21 65.319,60.551c13.831,24.895 20.88,53.354 20.88,85.442c-0,30.996 -7.002,59.065 -20.84,84.25c-14.081,25.627 -35.637,46.04 -64.925,60.966c-27.959,14.248 -63.918,21.7 -108.007,21.7l-87.462,0l0,215.588l-87.66,-0l-0,-550.167Zm87.66,254.379l87.462,-0c38.159,-0 65.675,-6.782 81.753,-23.074c15.557,-15.764 22.866,-37.092 22.866,-63.642c0,-28.268 -7.11,-50.333 -22.699,-65.714c-16.114,-15.899 -43.676,-22.494 -81.92,-22.494l-87.462,-0l0,174.924Z"/><path d="M1574.38,206.856l174.376,0c43.5,0 79.423,7.408 107.886,21.639c29.795,14.898 51.716,35.153 66.052,60.451c14.129,24.934 21.326,53.436 21.326,85.573c-0,40.928 -12.773,75.632 -38.002,104.225c-14.67,16.626 -32.088,29.763 -52.294,39.34c12.02,6.935 23.405,15.026 34.153,24.275c23.096,19.873 42.53,45.852 58.107,78.08c15.171,31.389 25.516,70.325 30.748,116.884l2.213,19.7l-91.331,-0l-1.354,-16.25c-3.709,-44.508 -13.482,-80.41 -29.94,-107.532c-15.854,-26.125 -37.393,-45.895 -64.631,-59.297c-18.936,-9.234 -40.427,-15.761 -64.441,-19.687c-20.037,-3.275 -41.773,-5.224 -65.208,-5.869l0,208.635l-87.66,-0l-0,-550.167Zm87.66,261.092l87.462,0c36.668,0 63.798,-7.926 80.64,-26.047c16.64,-17.903 24.725,-40.422 24.725,-67.382c0,-27.405 -7.461,-49.191 -23.447,-64.97c-16.566,-16.351 -44.369,-23.238 -82.664,-23.238l-86.716,-0l0,181.637Z"/><path d="M2346.91,633.19l-212.953,0l-45.342,123.833l-93.026,-0l203.322,-550.167l83.636,0l202.525,550.167l-93.01,-0l-45.152,-123.833Zm-28.698,-78.708l-77.554,-212.702l-77.882,212.702l155.436,-0Z"/></g><g transform="matrix(330.838,0,0,330.838,1957.32,1097.14)"></g><text x="654.476px" y="1097.14px" style="font-family:'Parkinsans-Light', 'Parkinsans';font-weight:300;font-size:330.838px;">H<tspan x="945.283px 1227.16px 1520.28px 1847.15px " y="1097.14px 1097.14px 1097.14px 1097.14px ">ANOI</tspan></text></g></svg>